<?xml version="1.0" encoding="UTF-8"?>
<svg width="438px" height="323px" viewBox="0 0 438 323" version="1.1" xmlns="http://www.w3.org/2000/svg" xmlns:xlink="http://www.w3.org/1999/xlink">
    <!-- Generator: Sketch 64 (93537) - https://sketch.com -->
    <title>Yathu-01</title>
    <desc>Created with Sketch.</desc>
    <g id="Welcome" stroke="none" stroke-width="1" fill="none" fill-rule="evenodd">
        <g id="Desktop-HD-Copy" transform="translate(-884.000000, -263.000000)" stroke="#676767">
            <g id="Yathu-01" transform="translate(885.000000, 265.000000)">
                <path d="M354,208 C353.892744,208.039409 353.041009,208.374384 351.665615,209 L351.659306,209 L350,208.586207 C352.365931,208.20197 353.84858,208.014778 354,208 Z" id="Path" stroke-width="2" fill="#FFFFFF" fill-rule="nonzero"></path>
                <path d="M360,195.205 L360,195.565 C348.902439,195.795 339,195.795 339,195.795 L360,195.205 Z" id="Path" stroke-width="2" fill="#FFFFFF" fill-rule="nonzero"></path>
                <path d="M351,209.492828 C345.79018,212.497299 332.804422,221.017885 326.914282,234.235183 C319.872372,235.024896 309.267734,235.767107 307,233.386093 C310.121118,218.351862 338.939238,211.137568 349.43049,209 L351,209.492828 Z" id="Path" stroke-width="2" fill="#FFFFFF" fill-rule="nonzero"></path>
                <path d="M360,225 L360,232.924941 C357.315396,232.937451 354.600897,232.962471 352,233 C354.182362,229.997654 356.962631,227.320563 360,225 Z" id="Path" stroke-width="2" fill="#FFFFFF" fill-rule="nonzero"></path>
                <path d="M313.741616,84.4585492 C313.431789,88.7238434 312.970086,93.4730156 313.061211,98.0310261 C313.061211,98.1743973 313.067286,98.3237424 313.073361,98.4671136 C313.079436,98.7000919 313.085511,98.9390439 313.091587,99.1660484 C313.395339,106.878226 309.689563,110.647695 306.172113,112.159067 C304.434651,112.905792 302.739715,113.102927 301.597607,112.953582 C298.146983,112.499573 293.092548,111.597529 292.175216,98.7120395 C291.585937,90.4383245 292.606544,83.2876841 293.40845,79.2254991 C295.194512,78.2816385 298.51756,76.4596291 302.448113,73.9924491 C308.359129,70.2886922 313.996768,78.1442411 313.996768,78.1442411 C314.021068,80.0498837 313.905642,82.1825308 313.741616,84.4585492 Z" id="Path" stroke-width="2"></path>
                <path d="M313.254744,85.1529359 C313.254744,85.1529359 315.09253,82.5356168 318.762036,85.1879893 C322.431543,87.8403618 316.966707,95.359312 314.977289,96.2414887 C312.98787,97.1236655 313,98 313,98" id="Path" stroke-width="2"></path>
                <path d="M322.637831,116.389062 C317.43918,117.763673 309.512582,116.389062 309.512582,116.389062 L308.794701,115.17795 L308.776754,115.147672 L307,112.144116 C310.463774,110.61206 314.113,106.791003 313.813883,98.9732787 C313.801918,98.7371119 313.801918,98.5009452 313.795936,98.2647784 C314.609534,97.2474448 315.297503,96.4360001 315.740196,96 C315.740196,96 320.603837,101.722502 322.410503,103.787447 C323.236065,104.726058 324.24708,105.900836 325.102555,106.906059 C325.132466,106.942392 325.162378,106.978725 325.19229,107.009003 C326.179376,108.159559 326.939132,109.055782 326.939132,109.055782 C326.939132,109.055782 327.848448,115.01445 322.637831,116.389062 Z" id="Path" stroke-width="2"></path>
                <path d="M332.367446,104 L339.979789,105.83341 C345.164834,107.085937 349.6289,110.389705 352.368622,115.000459 C354.249178,118.171108 357.109063,122.539827 360.257341,129.159465 C370.182828,150.028871 370.447187,178.371087 352.218418,179.847496 C333.983642,181.323905 321,171.594127 321,171.594127 L321.961306,164.375454 C321.961306,164.375454 348.643561,170.462616 352.230435,158.342749 C356.910794,142.489503 332.367446,104 332.367446,104 C329.916115,104.762408 327.452768,105.724494 324.995429,106.789445" id="Path" stroke-width="2"></path>
                <path d="M308.773922,115 C302.821155,118.404255 297.20511,122.799392 294.120494,129.176292 C292.923928,131.656535 292.557141,134.075988 293.657501,136.677812 C294.811977,139.419453 296.778194,141.81459 298.708334,144.033435 C303.524664,149.577508 309.03849,154.477204 314.299774,159.583587 C313.656394,153.990881 318.965782,159.674772 320,161" id="Path" stroke-width="2"></path>
                <path d="M321.705,165 C321.565,165.668874 321.435,166.331126 321.295,167 C321.425,166.350993 321.555,165.708609 321.685,165.059603" id="Path" stroke-width="2"></path>
                <path d="M360,186 L360,195.354839 L339.156425,195.707288 C339.156425,195.707288 338.581471,195.808841 337.564711,196 L336.983706,191.412186 C336.184823,189.894863 335.174115,188.043011 334,186 L360,186 Z" id="Path" stroke-width="2"></path>
                <path d="M360,195.205 L360,195.565 C348.902439,195.795 339,195.795 339,195.795 L360,195.205 Z" id="Path" stroke-width="2"></path>
                <path d="M382.83591,195.451796 C378.42959,195.710145 372.273703,195.880277 366,196 L366,186 L381.180595,186 C382.665076,191.129175 383.336628,194.588532 382.83591,195.451796 Z" id="Path" stroke-width="2"></path>
                <path d="M306.132263,173.377415 C304.594126,174.043091 303.044158,174.572065 301.541517,175 L288.443693,175 L288.437777,174.922734 C288.437777,174.91679 288.437777,174.91679 288.437777,174.910847 L288.076907,169.864785 L288,168.735513 C288,168.735513 295.915487,166.197623 297.844074,162.221397 C302.53539,152.551263 294.602155,144.955423 294.548912,139 C294.548912,139.005944 294.554828,139.005944 294.554828,139.011887 C296.938939,143.20208 301.88464,148.206538 307.25037,153.341753 C307.274033,153.365527 307.291781,153.383358 307.315445,153.401189 C309.82379,155.933135 312.231566,158.263001 314.118741,160.069837 L314.118741,160.07578 C314.414536,162.072808 315.911261,164.099554 316,164.224368 C315.751532,164.117385 306.291992,160.010401 303.263047,162.447251 C300.938094,164.319465 301.500106,170.429421 306.132263,173.377415 Z" id="Path" stroke-width="2"></path>
                <path d="M307,153 C301.505592,147.618416 296.441286,142.386147 294,138 C296.701771,142.043965 302.038677,147.885939 307,153 Z" id="Path" stroke-width="2"></path>
                <rect id="Rectangle" stroke-width="2" x="225" y="186" width="6" height="134"></rect>
                <path d="M360,195 L360,225.047457 C356.935322,227.289083 354.141587,229.87511 351.937909,232.769285 C350.155699,235.107585 348.758832,237.657359 347.915895,240.394439 C344.273202,252.285329 334.705866,298 334.705866,298 L315.842138,296.169238 C316.71518,294.211591 317.45576,290.544025 316.739264,287.553177 C318.244509,274.242389 321.604215,248.86549 326.565502,235.820555 C326.80032,235.204259 327.053201,234.594005 327.318124,233.995835 C333.260831,220.546078 346.368503,211.875638 351.618797,208.818326 L351.624818,208.818326 C352.937391,208.057019 353.756244,207.640113 353.858601,207.591776 C353.714098,207.615944 352.293147,207.839503 350.035279,208.310788 C339.450398,210.491993 310.375089,217.827125 307.226117,233.12577 C304.90804,244.388279 313.524061,283.37203 313.524061,283.37203 L301.494144,285.655951 C301.494144,285.655951 293.702997,267.825658 287.778354,253.197689 C281.859731,238.563677 278.722801,217.941925 295.069759,207.023817 C302.228704,202.2445 330.659768,196.752214 337.68023,195.435033 C338.691754,195.241685 339.263747,195.138969 339.263747,195.138969 C339.263747,195.138969 349.041818,195.138969 360,195 Z" id="Path" stroke-width="2"></path>
                <path d="M360,195.205 L360,195.565 C348.902439,195.795 339,195.795 339,195.795 L360,195.205 Z" id="Path" stroke-width="2"></path>
                <path d="M316,296 C316,296 316.254756,292.480729 316.759172,287 C317.360395,290.121934 316.733696,293.950245 316,296 Z" id="Path" stroke-width="2"></path>
                <path d="M383.99657,202.32996 C383.929487,207.995951 382.551234,215.216599 376.373489,217.354251 C376.355194,217.360324 376.336898,217.366397 376.318603,217.37247 C373.080318,218.495951 369.512716,220.050607 366,222 L366,195.52834 C372.494865,195.412955 378.867761,195.248988 383.429413,195 C383.429413,195 384.051456,198.261134 383.99657,202.32996 Z" id="Path" stroke-width="2" fill="#FFFFFF" fill-rule="nonzero"></path>
                <path d="M383,195.065 C378.550735,195.475 372.33485,195.745 366,195.935 L366,195.555 L383,195.065 Z" id="Path" stroke-width="2"></path>
                <path d="M320.404195,172 L320.584195,171 C320.584195,171 320.664195,171.41791 320.404195,172 Z" id="Path" stroke-width="2"></path>
                <polygon id="Path" stroke-width="2" points="322 175.1 322 175.9 320 175.1"></polygon>
                <rect id="Rectangle" stroke-width="2" x="263" y="186" width="6" height="134"></rect>
                <path d="M313,174.4925 C312.375,174.5125 311.703125,174.5125 311,174.4925 L313,174.4925 Z" id="Path" stroke-width="2"></path>
                <path d="M320.404195,172 L320.584195,171 C320.584195,171 320.664195,171.41791 320.404195,172 Z" id="Path" stroke-width="2"></path>
                <path d="M320.868611,162.241456 C319.076254,159.76029 315.789273,155.679746 314.669793,157.418994 C314.264875,158.045367 314.169601,158.781203 314.252966,159.529201 C314.258921,159.596096 314.264875,159.656909 314.27083,159.723803 L314.27083,159.729884 C314.568564,161.773197 316.075097,163.846916 316.164417,163.974624 C315.914321,163.86516 306.392793,159.66299 303.343999,162.156318 C301.003811,164.071924 301.569506,170.323489 306.232017,173.339808 C307.714732,174.300652 309.614273,174.939187 311.972325,175 L313.496722,175 C319.24894,174.847968 320.695926,172.889793 321.047252,171.752592 L321.154436,170.937699 L321.642719,167.21595 L322,164.497614 C321.583173,163.780022 321.202073,163.019861 320.868611,162.241456 Z" id="Path" stroke-width="2"></path>
                <path d="M315.816409,296.540987 C315.816409,296.540987 315.816409,296.546908 315.810355,296.552829 C315.132381,298.039037 312.366005,300.182492 308.655309,302.337789 C308.643202,302.349631 308.637149,302.355552 308.618989,302.361473 C304.236371,304.901645 298.534126,307.429974 293.413001,308.851049 C293.394841,308.85697 293.376681,308.862892 293.364574,308.862892 C292.959001,308.969472 292.55948,309.076053 292.15996,309.176712 C287.093315,310.414232 282.783338,310.420153 281.185256,308.057616 C276.209412,300.679868 288.509796,294.752801 288.509796,294.752801 C288.509796,294.752801 288.509796,294.752801 294.236255,292.73369 C299.962714,290.714579 301.379195,286.238193 301.379195,286.238193 L313.473766,284 C315.295821,284.763828 316.276462,286.303326 316.706249,288.097433 C317.43265,291.022479 316.688089,294.616615 315.816409,296.540987 Z" id="Path" stroke-width="2"></path>
                <path d="M336,306.963103 C336,306.963103 334.304994,308.228532 330.252775,309.198299 C320.003759,311.658197 318.302677,317.027398 302.37934,318.819102 C287.282242,320.516195 291.389139,309.742315 291.856936,308.618804 C291.881237,308.559672 291.893388,308.524192 291.893388,308.524192 C292.288282,308.453234 292.671025,308.382275 293.059844,308.305403 C293.071994,308.29949 293.09022,308.293577 293.108446,308.293577 C299.299167,307.016322 304.517842,304.343548 308.369577,301.812692 C308.381727,301.806779 308.393878,301.800865 308.406029,301.789039 C312.82884,298.879736 315.429065,296.171483 315.587022,296.011826 C315.593098,296.005913 315.593098,296 315.593098,296 L334.626984,297.791705 L336,306.963103 Z" id="Path" stroke-width="2"></path>
                <rect id="Rectangle" stroke-width="2" x="360" y="186" width="6" height="134"></rect>
                <rect id="Rectangle" stroke-width="2" x="399" y="186" width="6" height="134"></rect>
                <path d="M314.150965,78.1061106 C314.150965,78.1061106 308.527738,70.0703548 302.644233,73.8590762 C298.727949,76.3767426 295.416963,78.2405491 293.637385,79.2121728 C292.741542,79.70104 292.233091,79.9576953 292.233091,79.9576953 C292.233091,79.9576953 281.561671,80.9904275 280,72.8507874 C280,72.8507874 288.238118,77.6477975 297.075483,65.1633496 C305.9189,52.6789018 326.511169,71.6347301 314.150965,78.1061106 Z" id="Path" stroke-width="2"></path>
                <path d="M288,174.917808 C288,174.923288 288,174.923288 288,174.928767 C287.993939,174.950685 287.987879,174.978082 287.981818,175 L280.909091,175 L279,171.33973 C279.848485,169.191787 287.630303,170.271238 287.630303,170.271238 L288,174.917808 Z" id="Path" stroke-width="2"></path>
                <path d="M323,175.463768 L323,181 L280,181 L281.94217,178.002899 L281.736457,177.353623 C281.77881,177.110145 281.803011,176.866667 281.803011,176.617391 L281.004362,175 L312.012523,175 C312.563107,175.011594 313.077388,175.011594 313.567469,175 L320.803715,175 L323,175.463768 Z" id="Path" stroke-width="2"></path>
                <path d="M282,176.374384 C282,176.586207 281.970803,176.793103 281.919708,177 L281,175 L281.043796,175 L282,176.374384 Z" id="Path" stroke-width="2"></path>
                <path d="M313,174.4925 C312.375,174.5125 311.703125,174.5125 311,174.4925 L313,174.4925 Z" id="Path" stroke-width="2"></path>
                <polygon id="Path" stroke-width="2" points="322 175.1 322 175.9 320 175.1"></polygon>
                <path d="M282,176.433661 C282,176.693387 281.975897,176.947072 281.933717,177.200758 C281.566146,179.351044 279.686113,181 277.43851,181 L218.627225,181 C216.120515,181 214.065735,178.946355 214.065735,176.433661 L194,126.572379 C194,124.059685 196.05478,122 198.56149,122 L253.275267,122.45905 C255.781978,122.45905 256.33032,123.36507 258.800876,127.031429 L279.312517,170.707617 L281.204601,174.748464 L282,176.433661 Z" id="Path" stroke-width="2"></path>
                <g id="Group" transform="translate(0.000000, 113.000000)" stroke-width="2">
                    <path d="M68.616,109.099596 C69.144,109.063434 69.582,109.26835 70.026,109.449158 C72.864,110.600303 75.702,111.733367 78.522,112.90862 C79.17,113.179832 79.668,113.191886 80.268,112.745892 C81.954,111.480236 83.754,110.38936 85.716,109.581751 C86.13,109.412997 86.358,109.147811 86.424,108.65963 C86.862,105.399057 87.33,102.138485 87.786,98.8839394 C87.984,97.4615825 88.764,96.6780808 90.21,96.6720539 C95.496,96.6419192 100.788,96.6419192 106.074,96.6720539 C107.58,96.6841077 108.312,97.4796633 108.51,98.9683165 C108.948,102.228889 109.422,105.489461 109.866,108.750034 C109.932,109.244242 110.25,109.455185 110.646,109.623939 C112.536,110.419495 114.294,111.462155 115.926,112.69165 C116.58,113.185859 117.12,113.179832 117.84,112.878485 C120.69,111.685152 123.564,110.540034 126.432,109.394916 C128.004,108.768114 128.862,109.045354 129.702,110.503872 C132.342,115.066263 134.964,119.640707 137.58,124.221178 C138.222,125.348215 138.018,126.354714 136.974,127.192458 C134.508,129.163266 132.036,131.134074 129.534,133.056667 C128.82,133.599091 128.568,134.129461 128.676,135.069663 C128.898,136.938013 128.904,138.842525 128.652,140.716902 C128.562,141.391919 128.694,141.849966 129.252,142.283906 C131.7,144.176364 134.124,146.104983 136.548,148.027576 C138.156,149.305286 138.282,150.088788 137.244,151.884815 C134.772,156.175993 132.324,160.479226 129.852,164.776431 C128.802,166.602593 128.064,166.849697 126.084,166.048114 C123.276,164.915051 120.468,163.781987 117.672,162.618788 C117.054,162.365657 116.586,162.383737 116.016,162.805623 C114.378,164.029091 112.62,165.071751 110.736,165.867306 C110.142,166.114411 109.896,166.488081 109.812,167.157071 C109.404,170.357374 108.936,173.55165 108.468,176.745926 C108.264,178.126094 107.49,178.867407 106.074,178.873434 C100.788,178.903569 95.496,178.903569 90.21,178.873434 C88.758,178.867407 87.996,178.108013 87.786,176.667576 C87.33,173.443165 86.862,170.218754 86.436,166.98229 C86.364,166.415758 86.106,166.132492 85.626,165.927576 C83.718,165.101886 81.93,164.047172 80.262,162.817677 C79.704,162.407845 79.242,162.341549 78.606,162.606734 C75.846,163.763906 73.056,164.866835 70.29,166.005926 C68.214,166.855724 67.488,166.638754 66.372,164.710135 C63.864,160.364714 61.356,156.019293 58.86,151.667845 C58.002,150.167138 58.182,149.245017 59.532,148.172222 C62.004,146.207441 64.476,144.24266 66.972,142.308013 C67.548,141.855993 67.686,141.373838 67.596,140.656633 C67.362,138.746094 67.362,136.817475 67.596,134.912963 C67.698,134.087273 67.452,133.617172 66.834,133.135017 C64.332,131.206397 61.86,129.241616 59.394,127.270808 C58.224,126.336633 58.026,125.354242 58.764,124.064478 C61.386,119.490034 64.032,114.927643 66.66,110.359226 C67.116,109.581751 67.692,109.039327 68.616,109.099596 Z M84.03,137.799865 C83.862,145.514343 90.396,151.9933 98.16,151.981263 C105.87,151.969192 112.344,145.496263 112.284,137.649192 C112.218,129.982929 105.822,123.455758 97.92,123.564242 C90.342,123.672727 83.844,130.049226 84.03,137.799865 Z" id="Shape"></path>
                    <path d="M157.038,101.746734 C157.452,101.843165 157.746,102.096296 158.046,102.337374 C159.972,103.874242 161.904,105.405084 163.812,106.966061 C164.25,107.32165 164.634,107.448215 165.198,107.2433 C166.788,106.658687 168.426,106.224747 170.118,106.055993 C170.478,106.019832 170.712,105.869158 170.874,105.507542 C171.954,103.090741 173.058,100.685993 174.156,98.2812458 C174.636,97.2325589 175.416,96.8046465 176.532,97.130101 C180.618,98.3234343 184.698,99.5408754 188.766,100.782424 C189.924,101.138013 190.308,101.915488 190.122,103.114848 C189.714,105.730539 189.336,108.352256 188.934,110.967946 C188.874,111.365724 189.066,111.600774 189.336,111.817744 C190.614,112.866431 191.73,114.071818 192.708,115.403771 C193.098,115.934141 193.518,116.05468 194.142,115.988384 C196.614,115.723199 199.086,115.506229 201.564,115.277205 C202.92,115.156667 203.52,115.566498 203.838,116.886397 C204.828,121.014848 205.812,125.1433 206.784,129.277778 C207.024,130.29633 206.634,131.025589 205.638,131.429394 C203.286,132.38165 200.928,133.333906 198.558,134.237946 C197.886,134.497104 197.568,134.84064 197.442,135.594007 C197.19,137.088687 196.758,138.553232 196.134,139.945455 C195.912,140.44569 195.906,140.831414 196.242,141.295488 C197.7,143.320539 199.128,145.36367 200.556,147.406801 C201.504,148.762862 201.42,149.39569 200.214,150.546835 C197.328,153.289091 194.454,156.043401 191.574,158.785657 C190.35,159.954882 189.726,159.972963 188.376,158.894141 C186.468,157.375354 184.566,155.856566 182.67,154.31367 C182.256,153.976162 181.884,153.879731 181.35,154.07862 C179.808,154.645152 178.218,155.048956 176.58,155.223737 C176.064,155.27798 175.788,155.507003 175.572,156.001212 C174.528,158.375825 173.436,160.732357 172.344,163.088889 C171.87,164.107441 171.108,164.499192 170.01,164.179764 C165.924,162.986431 161.844,161.76899 157.776,160.527441 C156.654,160.183906 156.24,159.430539 156.414,158.26734 C156.798,155.675758 157.17,153.078148 157.584,150.486566 C157.656,150.034545 157.524,149.751279 157.2,149.486094 C155.916,148.4133 154.782,147.183805 153.768,145.851852 C153.432,145.405859 153.09,145.249158 152.538,145.309428 C150.144,145.568586 147.744,145.773502 145.35,146.014579 C143.556,146.195387 143.046,145.857879 142.626,144.116094 C141.684,140.186532 140.742,136.25697 139.812,132.327407 C139.494,130.971347 139.842,130.302357 141.126,129.78404 C143.484,128.837811 145.836,127.891582 148.206,126.969461 C148.752,126.758519 148.968,126.414983 149.064,125.842424 C149.322,124.317609 149.76,122.828956 150.372,121.412626 C150.642,120.797879 150.558,120.375993 150.192,119.869731 C148.704,117.802492 147.246,115.723199 145.794,113.631852 C145.104,112.643434 145.176,111.841852 146.04,111.016162 C149.106,108.093098 152.184,105.182088 155.256,102.265051 C155.772,101.770842 156.342,101.487576 157.038,101.746734 Z M162.378,127.427508 C160.488,133.339933 164.046,139.842997 170.04,141.620943 C175.992,143.386835 182.46,139.885185 184.2,133.816061 C185.898,127.885556 182.46,121.382492 176.334,119.646734 C170.472,117.989327 164.004,121.406599 162.378,127.427508 Z" id="Shape"></path>
                    <path d="M172.914,17.7553535 C176.28,23.6014815 179.664,29.4355556 183.018,35.2937374 C183.966,36.9451178 183.714,38.1987205 182.214,39.3980808 C179.058,41.923367 175.89,44.4305724 172.692,46.9016162 C171.9,47.5163636 171.588,48.1190572 171.72,49.173771 C172.02,51.6146801 172.02,54.079697 171.72,56.526633 C171.606,57.4487542 171.78,58.0635017 172.524,58.6420875 C175.716,61.1191582 178.878,63.6384175 182.046,66.1516498 C183.768,67.5197643 184.008,68.7070707 182.904,70.6236364 C179.712,76.1925253 176.508,81.7553872 173.298,87.3122222 C171.876,89.7772391 170.94,90.0605051 168.288,88.9696296 C164.742,87.5111111 161.178,86.1008081 157.644,84.6242088 C156.834,84.2867003 156.24,84.3650505 155.526,84.8893939 C153.384,86.4684512 151.104,87.8124579 148.662,88.8671717 C148.05,89.1323569 147.72,89.5 147.624,90.2172054 C147.084,94.3516835 146.484,98.4801347 145.896,102.608586 C145.632,104.458855 144.66,105.423165 142.8,105.435219 C136.032,105.47138 129.27,105.47138 122.502,105.435219 C120.69,105.423165 119.7,104.476936 119.442,102.711044 C118.842,98.6247811 118.242,94.5385185 117.72,90.446229 C117.612,89.590404 117.294,89.120303 116.532,88.8008754 C114.114,87.7823232 111.87,86.4503704 109.776,84.883367 C109.05,84.3409428 108.444,84.316835 107.658,84.6422896 C104.082,86.1249158 100.488,87.5774074 96.9,89.0238721 C94.362,90.0484512 93.42,89.7350505 92.076,87.3965993 C88.914,81.9060606 85.782,76.3974411 82.62,70.9008754 C81.3,68.6046128 81.456,67.5981145 83.514,65.9648148 C86.616,63.499798 89.712,61.0347811 92.844,58.6119529 C93.564,58.0574747 93.732,57.466835 93.612,56.6049832 C93.294,54.2002357 93.294,51.7713805 93.582,49.3786869 C93.726,48.1793266 93.396,47.5043098 92.49,46.8051852 C89.28,44.3461953 86.124,41.826936 82.968,39.3016498 C81.63,38.2288552 81.366,36.9390909 82.194,35.4986532 C85.542,29.6404714 88.896,23.7883165 92.274,17.9482155 C93.354,16.0798653 94.446,15.7242761 96.462,16.5258586 C100.134,17.996431 103.806,19.4549495 107.454,20.9857912 C108.372,21.3715152 109.074,21.3775421 109.908,20.7447138 C111.996,19.1656566 114.246,17.8337037 116.664,16.8151515 C117.168,16.6042088 117.576,16.3329966 117.66,15.7001684 C118.224,11.5295286 118.83,7.35888889 119.394,3.18824916 C119.652,1.27771044 120.588,0.259158249 122.514,0.247104377 C129.282,0.204915825 136.05,0.204915825 142.812,0.247104377 C144.66,0.259158249 145.656,1.25962963 145.914,3.07976431 C146.502,7.25040404 147.102,11.4150168 147.66,15.5916835 C147.744,16.2124579 148.032,16.5499663 148.566,16.766936 C151.074,17.7975421 153.372,19.1957912 155.532,20.8110101 C156.3,21.383569 156.936,21.3654882 157.764,21.0219529 C161.376,19.5152189 165.012,18.0627273 168.636,16.5921549 C169.2,16.3631313 169.764,16.1039731 170.442,16.1461616 C171.612,16.0798653 172.344,16.772963 172.914,17.7553535 Z M132.942,34.666936 C122.832,34.5222896 114.648,42.8756229 114.564,52.6874747 C114.48,62.7283502 122.766,71.0153872 132.63,71.0274542 C142.566,71.0394949 150.918,62.746431 150.708,52.8803367 C150.942,42.96 142.626,34.8055556 132.942,34.666936 Z" id="Shape"></path>
                    <path d="M66.114,7.73255892 C70.044,11.4692593 73.986,15.1878788 77.91,18.9306061 C79.014,19.9853199 79.11,21.009899 78.228,22.2815825 C76.368,24.9575421 74.502,27.6214478 72.6,30.2612458 C72.126,30.9181818 72.024,31.4545791 72.366,32.2380808 C73.152,34.0521886 73.716,35.9567003 74.04,37.9094276 C74.16,38.6447138 74.436,39.0846801 75.138,39.3558923 C78.168,40.5311448 81.18,41.7425589 84.192,42.9539731 C85.836,43.6109091 86.286,44.4727609 85.878,46.2085185 C84.684,51.2410101 83.484,56.2674747 82.278,61.2939394 C81.744,63.5239057 81.084,63.9518182 78.792,63.7227946 C75.726,63.4154209 72.654,63.1502357 69.594,62.8187542 C68.892,62.740404 68.454,62.9453199 68.022,63.5118519 C66.732,65.2174747 65.28,66.7844781 63.636,68.1646465 C63.222,68.5081818 63.054,68.869798 63.144,69.4483838 C63.672,72.7631987 64.152,76.0840404 64.638,79.3988552 C64.854,80.8814815 64.326,81.8578451 62.892,82.2917845 C57.684,83.8768687 52.464,85.4378451 47.238,86.9626599 C45.84,87.3724916 44.856,86.8722559 44.256,85.5644108 C42.858,82.5509428 41.466,79.5374747 40.128,76.499899 C39.852,75.8670707 39.498,75.5717508 38.838,75.5054545 C36.744,75.276431 34.704,74.7641414 32.73,74.0409091 C32.046,73.7877778 31.578,73.9083165 31.044,74.3422559 C28.626,76.313064 26.184,78.2597643 23.748,80.2004377 C22.026,81.5745791 21.228,81.5504714 19.656,80.0557912 C15.966,76.5481145 12.288,73.0223569 8.598,69.5146801 C7.056,68.0441077 6.942,67.2364983 8.16,65.5007407 C9.99,62.8850505 11.814,60.2693603 13.68,57.6838047 C14.106,57.093165 14.1,56.5989562 13.818,55.960101 C13.02,54.1821549 12.474,52.3077778 12.144,50.3912121 C11.982,49.4329293 11.574,48.986936 10.71,48.6554545 C7.674,47.4982828 4.662,46.2808418 1.65,45.0634007 C0.372,44.5450842 -0.12,43.6109091 0.186,42.3090909 C1.428,37.023468 2.688,31.7378451 3.954,26.4522222 C4.362,24.7646801 5.124,24.2343098 6.858,24.3910101 C10.026,24.680303 13.194,24.9575421 16.356,25.3010774 C17.154,25.3854545 17.694,25.2287542 18.192,24.5537374 C19.44,22.8541414 20.874,21.3112458 22.506,19.9672391 C22.848,19.6839731 23.1,19.3886532 23.022,18.8763636 C22.506,15.5253872 22.02,12.1744108 21.504,8.82946128 C21.264,7.29861953 21.756,6.29814815 23.238,5.84612795 C28.446,4.25501684 33.666,2.70006734 38.892,1.16922559 C40.32,0.753367003 41.316,1.29579125 41.928,2.63979798 C43.332,5.71956229 44.748,8.7993266 46.128,11.8851178 C46.332,12.343165 46.632,12.5360269 47.094,12.5842424 C49.26,12.8012121 51.354,13.3496633 53.388,14.1030303 C54.108,14.3682155 54.6,14.2115152 55.158,13.753468 C57.6,11.7585522 60.072,9.79979798 62.532,7.83501684 C62.916,7.5276431 63.288,7.19616162 63.822,7.0756229 C64.728,6.73811448 65.454,7.10575758 66.114,7.73255892 Z M39.144,29.9779798 C31.314,32.1958923 26.904,40.5190909 29.082,48.1070034 C31.308,55.869697 39.588,60.3537374 47.202,58.0876094 C54.87,55.8094276 59.418,47.4922559 57.006,39.9284512 C54.918,32.2320539 46.65,27.8564983 39.144,29.9779798 Z" id="Shape"></path>
                </g>
                <rect id="Rectangle" stroke-width="2" x="192" y="181" width="244" height="5"></rect>
                <line x1="366" y1="147" x2="380" y2="181" id="Path" stroke-width="2"></line>
                <g id="Group" transform="translate(109.000000, 0.000000)" stroke-linecap="round" stroke-linejoin="round" stroke-width="3">
                    <polyline id="Path" points="7.66093023 4.72702703 0.441395349 11.66 7.93302326 18.1589189"></polyline>
                    <polyline id="Path" points="18.72 4.72702703 25.9395349 11.66 18.4539535 18.1589189"></polyline>
                    <line x1="15.4125581" y1="0.130810811" x2="10.2488372" y2="21.7978378" id="Path"></line>
                </g>
                <line x1="94" y1="35.5" x2="142" y2="35.5" id="Path" stroke-width="2"></line>
                <line x1="94" y1="51.5" x2="125" y2="51.5" id="Path" stroke-width="2"></line>
                <line x1="134" y1="51.5" x2="146" y2="51.5" id="Path" stroke-width="2"></line>
                <line x1="154" y1="51.5" x2="181" y2="51.5" id="Path" stroke-width="2"></line>
                <line x1="187" y1="51.5" x2="208" y2="51.5" id="Path" stroke-width="2"></line>
                <line x1="214" y1="51.5" x2="292" y2="51.5" id="Path" stroke-width="2"></line>
                <line x1="103" y1="65.5" x2="161" y2="65.5" id="Path" stroke-width="2"></line>
                <line x1="172" y1="65.5" x2="216" y2="65.5" id="Path" stroke-width="2"></line>
                <line x1="251" y1="65.5" x2="278" y2="65.5" id="Path" stroke-width="2"></line>
                <path d="M356.124189,121.024899 C355.820326,112.584226 355.862033,99.8540309 358.775538,98.0973121 C363.190481,95.4381693 399.773138,91.4133581 401.775055,96.2924641 C403.133499,99.6073683 398.134664,143.567451 392.28978,181" id="Path" stroke-width="2"></path>
                <path d="M391,186 C391,186 388.962568,198.310919 388.542052,202.432769 C388.542052,202.432769 389.32978,213.414254 387.778015,222.422836 C387.778015,222.434977 387.778015,222.441047 387.772092,222.453188 C387.659559,223.139152 387.529258,223.812974 387.381189,224.468585 C387.363421,224.523219 387.357498,224.553572 387.357498,224.553572 C386.11964,230.05342 383.827529,234.320962 379.663824,233.981016 C376.501066,233.726056 371.525942,233.616787 366,233.598576 L366,222.09503 C369.411514,220.146409 372.876333,218.592368 376.021322,217.46933 C376.03909,217.46326 376.056859,217.457189 376.074627,217.451119 C378.040986,216.753014 379.503909,215.508568 380.587775,213.948456 C382.814736,210.755387 383.436626,206.238956 383.478086,202.432769 C383.531391,198.365553 382.927268,195.105709 382.927268,195.105709 C383.430704,194.274054 382.755508,190.941365 381.262971,186" id="Path" stroke-width="2"></path>
                <path d="M387.475433,224 C387.475433,224 390.73579,212.079786 381,213.056955" id="Path" stroke-width="2"></path>
            </g>
        </g>
    </g>
</svg>