<svg width="438" height="323" xmlns="http://www.w3.org/2000/svg"><g stroke="#676767" fill="none" fill-rule="evenodd"><path d="M355 210c-.107.04-.959.374-2.334 1h-.007l-1.659-.414c2.366-.384 3.849-.571 4-.586zm6-12.795v.36c-11.098.23-21 .23-21 .23l21-.59zm-9 14.288c-5.21 3.004-18.196 11.525-24.086 24.742-7.042.79-17.646 1.532-19.914-.849 3.121-15.034 31.94-22.248 42.43-24.386l1.57.493zM361 227v7.925c-2.685.012-5.4.037-8 .075 2.182-3.002 4.963-5.68 8-8z" stroke-width="2" fill="#FFF" fill-rule="nonzero"/><path d="M314.742 86.459c-.31 4.265-.772 9.014-.68 13.572 0 .143.005.293.011.436l.019.699c.303 7.712-3.402 11.482-6.92 12.993-1.737.747-3.432.944-4.574.795-3.451-.454-8.505-1.356-9.423-14.242-.59-8.274.432-15.424 1.233-19.487 1.787-.943 5.11-2.765 9.04-5.233 5.911-3.703 11.549 4.152 11.549 4.152.024 1.906-.091 4.039-.255 6.315z" stroke-width="2"/><path d="M314.255 87.153s1.838-2.617 5.507.035c3.67 2.652-1.795 10.171-3.785 11.053C313.987 99.124 314 100 314 100m9.638 18.39c-5.199 1.374-13.125 0-13.125 0l-.718-1.212-.018-.03-1.777-3.004c3.464-1.532 7.113-5.353 6.814-13.17-.012-.237-.012-.473-.018-.71.814-1.017 1.502-1.828 1.944-2.264 0 0 4.864 5.723 6.67 7.787a270.875 270.875 0 012.782 3.222c.987 1.15 1.747 2.047 1.747 2.047s.91 5.958-4.301 7.333z" stroke-width="2"/><path d="M333.367 106l7.613 1.833A19.838 19.838 0 01353.369 117c1.88 3.171 4.74 7.54 7.888 14.16 9.926 20.869 10.19 49.211-8.039 50.687-18.234 1.477-31.218-8.253-31.218-8.253l.961-7.219s26.683 6.088 30.27-6.032C357.91 144.49 333.366 106 333.366 106c-2.45.762-4.914 1.724-7.372 2.79m-16.22 8.21c-5.953 3.404-11.569 7.8-14.654 14.176-1.196 2.48-1.563 4.9-.462 7.502 1.154 2.741 3.12 5.137 5.05 7.355 4.817 5.545 10.33 10.444 15.592 15.55-.644-5.592 4.666.092 5.7 1.417" stroke-width="2"/><path d="M322.705 167c-.14.669-.27 1.331-.41 2l.39-1.94M361 188v9.355l-20.844.352s-.575.102-1.591.293l-.581-4.588A169.17 169.17 0 00335 188h26z" stroke-width="2"/><path d="M361 197.205v.36c-11.098.23-21 .23-21 .23l21-.59zm22.836.247c-4.406.258-10.562.428-16.836.548v-10h15.18c1.485 5.13 2.157 8.589 1.656 9.452zm-76.704-22.075a37.248 37.248 0 01-4.59 1.623h-13.098l-.006-.077v-.012l-.361-5.046-.077-1.13s7.915-2.537 9.844-6.514c4.691-9.67-3.242-17.266-3.295-23.221 0 .006.006.006.006.012 2.384 4.19 7.33 9.195 12.695 14.33a.59.59 0 00.065.06 362.422 362.422 0 006.804 6.668v.006c.296 1.997 1.792 4.024 1.881 4.148-.248-.107-9.708-4.214-12.737-1.777-2.325 1.872-1.763 7.982 2.87 10.93z" stroke-width="2"/><path d="M308 155c-5.494-5.382-10.559-10.614-13-15 2.702 4.044 8.039 9.886 13 15zm-82 33h6v134h-6zm135 9v30.047c-3.065 2.242-5.858 4.828-8.062 7.722-1.782 2.339-3.18 4.888-4.022 7.625-3.643 11.891-13.21 57.606-13.21 57.606l-18.864-1.83c.873-1.958 1.614-5.626.897-8.617 1.506-13.31 4.865-38.688 9.827-51.732.234-.617.487-1.227.752-1.825 5.943-13.45 19.05-22.12 24.3-25.178h.007a42.28 42.28 0 012.234-1.226c-.145.024-1.566.248-3.824.719-10.585 2.181-39.66 9.516-42.809 24.815-2.318 11.262 6.298 50.246 6.298 50.246l-12.03 2.284s-7.791-17.83-13.716-32.458c-5.918-14.634-9.055-35.256 7.292-46.174 7.159-4.78 35.59-10.272 42.61-11.589 1.012-.193 1.584-.296 1.584-.296s9.778 0 20.736-.139z" stroke-width="2"/><path d="M361 197.205v.36c-11.098.23-21 .23-21 .23l21-.59zM317 298s.255-3.52.76-9c.6 3.122-.026 6.95-.76 9z" stroke-width="2"/><path d="M384.997 204.33c-.068 5.666-1.446 12.887-7.624 15.024l-.054.018A66.492 66.492 0 00367 224v-26.472c6.495-.115 12.868-.279 17.43-.528 0 0 .621 3.261.567 7.33z" stroke-width="2" fill="#FFF" fill-rule="nonzero"/><path d="M384 197.065c-4.45.41-10.665.68-17 .87v-.38l17-.49zM321.404 174l.18-1s.08.418-.18 1zm1.596 3.1v.8l-2-.8zM264 188h6v134h-6zm50-11.507c-.625.02-1.297.02-2 0h2z" stroke-width="2"/><path d="M321.404 174l.18-1s.08.418-.18 1z" stroke-width="2"/><path d="M321.869 164.241c-1.793-2.48-5.08-6.561-6.2-4.822-.404.626-.5 1.362-.416 2.11l.018.195v.006c.298 2.043 1.804 4.117 1.893 4.245-.25-.11-9.771-4.312-12.82-1.819-2.34 1.916-1.774 8.167 2.888 11.184 1.483.96 3.382 1.6 5.74 1.66h1.525c5.752-.152 7.199-2.11 7.55-3.247l.107-.815.489-3.722.357-2.718a20.881 20.881 0 01-1.131-2.257zm-5.053 134.3s0 .006-.006.012c-.678 1.486-3.444 3.63-7.155 5.785-.012.012-.018.018-.036.023-4.383 2.54-10.085 5.069-15.206 6.49-.018.006-.036.012-.048.012-.406.106-.806.213-1.205.314-5.067 1.237-9.377 1.243-10.975-1.12-4.976-7.377 7.325-13.304 7.325-13.304l5.726-2.02c5.727-2.018 7.143-6.495 7.143-6.495L314.474 286c1.822.764 2.802 2.303 3.232 4.097.727 2.925-.018 6.52-.89 8.444z" stroke-width="2"/><path d="M337 308.963s-1.695 1.266-5.747 2.235c-10.25 2.46-11.95 7.83-27.874 9.621-15.097 1.697-10.99-9.077-10.522-10.2.024-.06.036-.095.036-.095.395-.07.778-.142 1.167-.219a.117.117 0 01.048-.011c6.191-1.278 11.41-3.95 15.262-6.481a.127.127 0 00.036-.024c4.423-2.91 7.023-5.618 7.181-5.777.006-.006.006-.012.006-.012l19.034 1.792 1.373 9.171zM361 188h6v134h-6zm39 0h6v134h-6zM315.151 80.106s-5.623-8.036-11.507-4.247a148.763 148.763 0 01-9.007 5.353c-.895.489-1.404.746-1.404.746S282.562 82.99 281 74.85c0 0 8.238 4.797 17.075-7.688 8.844-12.484 29.436 6.472 17.076 12.943zM289 176.918v.01l-.018.072h-7.073L280 173.34c.848-2.148 8.63-1.069 8.63-1.069l.37 4.647zm35 .546V183h-43l1.942-2.997-.206-.65c.043-.243.067-.486.067-.736l-.799-1.617h31.009c.55.012 1.064.012 1.554 0h7.237l2.196.464z" stroke-width="2"/><path d="M283 178.374c0 .212-.03.42-.08.626l-.92-2h.044l.956 1.374zm31-1.881c-.625.02-1.297.02-2 0h2zm9 .607v.8l-2-.8z" stroke-width="2"/><path d="M283 178.434c0 .26-.024.513-.066.767-.368 2.15-2.248 3.799-4.495 3.799h-58.812c-2.506 0-4.561-2.054-4.561-4.566L195 128.572c0-2.512 2.055-4.572 4.561-4.572l54.714.46c2.507 0 3.055.905 5.526 4.571l20.512 43.677 1.892 4.04.795 1.686z" stroke-width="2"/><g stroke-width="2"><path d="M69.616 224.1c.528-.037.966.168 1.41.35 2.838 1.15 5.676 2.283 8.496 3.459.648.27 1.146.283 1.746-.163 1.686-1.266 3.486-2.357 5.448-3.164.414-.169.642-.434.708-.922.438-3.26.906-6.522 1.362-9.776.198-1.422.978-2.206 2.424-2.212 5.286-.03 10.578-.03 15.864 0 1.506.012 2.238.808 2.436 2.296.438 3.26.912 6.521 1.356 9.782.066.494.384.705.78.874 1.89.795 3.648 1.838 5.28 3.068.654.494 1.194.488 1.914.186 2.85-1.193 5.724-2.338 8.592-3.483 1.572-.627 2.43-.35 3.27 1.109a2797.45 2797.45 0 017.878 13.717c.642 1.127.438 2.134-.606 2.971a497.325 497.325 0 01-7.44 5.865c-.714.542-.966 1.072-.858 2.013a22.518 22.518 0 01-.024 5.647c-.09.675.042 1.133.6 1.567 2.448 1.892 4.872 3.821 7.296 5.744 1.608 1.277 1.734 2.06.696 3.857-2.472 4.291-4.92 8.594-7.392 12.891-1.05 1.827-1.788 2.074-3.768 1.272a848.05 848.05 0 01-8.412-3.43c-.618-.252-1.086-.234-1.656.188-1.638 1.223-3.396 2.266-5.28 3.061-.594.247-.84.621-.924 1.29-.408 3.2-.876 6.395-1.344 9.589-.204 1.38-.978 2.121-2.394 2.127-5.286.03-10.578.03-15.864 0-1.452-.006-2.214-.765-2.424-2.205-.456-3.225-.924-6.45-1.35-9.686-.072-.566-.33-.85-.81-1.054a27.37 27.37 0 01-5.364-3.11c-.558-.41-1.02-.476-1.656-.211-2.76 1.157-5.55 2.26-8.316 3.399-2.076.85-2.802.633-3.918-1.296-2.508-4.345-5.016-8.69-7.512-13.042-.858-1.5-.678-2.423.672-3.496a776.535 776.535 0 017.44-5.864c.576-.452.714-.934.624-1.651a23.585 23.585 0 010-5.744c.102-.826-.144-1.296-.762-1.778a539.8 539.8 0 01-7.44-5.864c-1.17-.934-1.368-1.917-.63-3.207 2.622-4.574 5.268-9.136 7.896-13.705.456-.777 1.032-1.32 1.956-1.26zm15.414 28.7c-.168 7.714 6.366 14.193 14.13 14.181 7.71-.012 14.184-6.485 14.124-14.332-.066-7.666-6.462-14.193-14.364-14.085-7.578.109-14.076 6.485-13.89 14.236zm73.008-36.053c.414.096.708.35 1.008.59 1.926 1.537 3.858 3.068 5.766 4.63.438.355.822.481 1.386.276 1.59-.584 3.228-1.018 4.92-1.187.36-.036.594-.187.756-.548 1.08-2.417 2.184-4.822 3.282-7.227.48-1.048 1.26-1.476 2.376-1.15 4.086 1.192 8.166 2.41 12.234 3.651 1.158.356 1.542 1.133 1.356 2.333-.408 2.616-.786 5.237-1.188 7.853-.06.398.132.633.402.85a19.652 19.652 0 013.372 3.586c.39.53.81.65 1.434.584 2.472-.265 4.944-.482 7.422-.71 1.356-.121 1.956.288 2.274 1.608.99 4.129 1.974 8.257 2.946 12.392.24 1.018-.15 1.748-1.146 2.151a375.83 375.83 0 01-7.08 2.809c-.672.26-.99.603-1.116 1.356a17.913 17.913 0 01-1.308 4.351c-.222.5-.228.886.108 1.35a543.702 543.702 0 014.314 6.112c.948 1.356.864 1.989-.342 3.14-2.886 2.742-5.76 5.496-8.64 8.239-1.224 1.169-1.848 1.187-3.198.108a678.246 678.246 0 01-5.706-4.58c-.414-.338-.786-.434-1.32-.235-1.542.566-3.132.97-4.77 1.145-.516.054-.792.283-1.008.777a395.077 395.077 0 01-3.228 7.088c-.474 1.018-1.236 1.41-2.334 1.09a1058.17 1058.17 0 01-12.234-3.652c-1.122-.343-1.536-1.096-1.362-2.26.384-2.591.756-5.189 1.17-7.78.072-.452-.06-.736-.384-1-1.284-1.074-2.418-2.303-3.432-3.635-.336-.446-.678-.603-1.23-.543-2.394.26-4.794.465-7.188.706-1.794.18-2.304-.157-2.724-1.899-.942-3.93-1.884-7.859-2.814-11.789-.318-1.356.03-2.025 1.314-2.543 2.358-.946 4.71-1.892 7.08-2.815.546-.21.762-.554.858-1.127a19.277 19.277 0 011.308-4.43c.27-.614.186-1.036-.18-1.542a448.311 448.311 0 01-4.398-6.238c-.69-.989-.618-1.79.246-2.616 3.066-2.923 6.144-5.834 9.216-8.75.516-.495 1.086-.778 1.782-.52zm5.34 25.68c-1.89 5.913 1.668 12.416 7.662 14.194 5.952 1.766 12.42-1.736 14.16-7.805 1.698-5.93-1.74-12.434-7.866-14.17-5.862-1.657-12.33 1.76-13.956 7.782z"/><path d="M173.914 132.755c3.366 5.846 6.75 11.68 10.104 17.539.948 1.651.696 2.905-.804 4.104a714.165 714.165 0 01-9.522 7.504c-.792.614-1.104 1.217-.972 2.272.3 2.44.3 4.906 0 7.353-.114.922.06 1.537.804 2.115 3.192 2.477 6.354 4.996 9.522 7.51 1.722 1.368 1.962 2.555.858 4.472a5718.407 5718.407 0 01-9.606 16.688c-1.422 2.465-2.358 2.749-5.01 1.658-3.546-1.459-7.11-2.87-10.644-4.346-.81-.337-1.404-.259-2.118.265-2.142 1.58-4.422 2.923-6.864 3.978-.612.265-.942.633-1.038 1.35-.54 4.135-1.14 8.263-1.728 12.392-.264 1.85-1.236 2.814-3.096 2.826-6.768.036-13.53.036-20.298 0-1.812-.012-2.802-.958-3.06-2.724-.6-4.086-1.2-8.172-1.722-12.265-.108-.856-.426-1.326-1.188-1.645-2.418-1.019-4.662-2.35-6.756-3.918-.726-.542-1.332-.566-2.118-.24a1187.65 1187.65 0 01-10.758 4.38c-2.538 1.025-3.48.712-4.824-1.626-3.162-5.49-6.294-11-9.456-16.496-1.32-2.296-1.164-3.303.894-4.936 3.102-2.465 6.198-4.93 9.33-7.353.72-.555.888-1.145.768-2.007a28.84 28.84 0 01-.03-7.226c.144-1.2-.186-1.875-1.092-2.574-3.21-2.459-6.366-4.978-9.522-7.503-1.338-1.073-1.602-2.363-.774-3.803a3848.55 3848.55 0 0110.08-17.55c1.08-1.87 2.172-2.225 4.188-1.423 3.672 1.47 7.344 2.929 10.992 4.46.918.386 1.62.392 2.454-.241 2.088-1.58 4.338-2.911 6.756-3.93.504-.21.912-.482.996-1.115.564-4.17 1.17-8.341 1.734-12.512.258-1.91 1.194-2.929 3.12-2.94a1596.95 1596.95 0 0120.298 0c1.848.011 2.844 1.012 3.102 2.832.588 4.17 1.188 8.335 1.746 12.512.084.62.372.958.906 1.175 2.508 1.03 4.806 2.429 6.966 4.044.768.573 1.404.554 2.232.211 3.612-1.507 7.248-2.96 10.872-4.43.564-.229 1.128-.488 1.806-.446 1.17-.066 1.902.627 2.472 1.61zm-39.972 16.912c-10.11-.145-18.294 8.209-18.378 18.02-.084 10.041 8.202 18.328 18.066 18.34 9.936.012 18.288-8.28 18.078-18.147.234-9.92-8.082-18.074-17.766-18.213z"/><path d="M67.114 122.733c3.93 3.736 7.872 7.455 11.796 11.198 1.104 1.054 1.2 2.079.318 3.35a576.164 576.164 0 01-5.628 7.98c-.474.657-.576 1.194-.234 1.977a24.255 24.255 0 011.674 5.671c.12.736.396 1.176 1.098 1.447a786.048 786.048 0 019.054 3.598c1.644.657 2.094 1.519 1.686 3.255a6133.833 6133.833 0 01-3.6 15.085c-.534 2.23-1.194 2.658-3.486 2.429-3.066-.308-6.138-.573-9.198-.904-.702-.079-1.14.126-1.572.693-1.29 1.705-2.742 3.272-4.386 4.653-.414.343-.582.705-.492 1.283.528 3.315 1.008 6.636 1.494 9.95.216 1.483-.312 2.46-1.746 2.894a1414.241 1414.241 0 01-15.654 4.67c-1.398.41-2.382-.09-2.982-1.398a512.25 512.25 0 01-4.128-9.064c-.276-.633-.63-.928-1.29-.995-2.094-.229-4.134-.74-6.108-1.464-.684-.253-1.152-.133-1.686.301a839.398 839.398 0 01-7.296 5.858c-1.722 1.375-2.52 1.35-4.092-.144-3.69-3.508-7.368-7.034-11.058-10.541-1.542-1.47-1.656-2.279-.438-4.014 1.83-2.616 3.654-5.232 5.52-7.817.426-.59.42-1.085.138-1.724a23.185 23.185 0 01-1.674-5.569c-.162-.958-.57-1.404-1.434-1.736-3.036-1.157-6.048-2.374-9.06-3.592-1.278-.518-1.77-1.452-1.464-2.754a3792.155 3792.155 0 013.768-15.857c.408-1.687 1.17-2.218 2.904-2.061 3.168.29 6.336.567 9.498.91.798.084 1.338-.072 1.836-.747a25.35 25.35 0 014.314-4.587c.342-.283.594-.578.516-1.09-.516-3.352-1.002-6.703-1.518-10.048-.24-1.53.252-2.53 1.734-2.983a1414.54 1414.54 0 0115.654-4.677c1.428-.416 2.424.127 3.036 1.47 1.404 3.08 2.82 6.16 4.2 9.246.204.458.504.651.966.7 2.166.216 4.26.765 6.294 1.518.72.265 1.212.109 1.77-.35 2.442-1.994 4.914-3.953 7.374-5.918.384-.307.756-.639 1.29-.76.906-.337 1.632.03 2.292.658zm-26.97 22.245c-7.83 2.218-12.24 10.541-10.062 18.129 2.226 7.763 10.506 12.247 18.12 9.98 7.668-2.278 12.216-10.595 9.804-18.159-2.088-7.696-10.356-12.072-17.862-9.95z"/></g><path stroke-width="2" d="M193 183h244v5H193zm174-34l14 34"/><path d="M117.66 6.727l-7.219 6.933 7.492 6.499M128.72 6.727l7.22 6.933-7.486 6.499m-3.041-18.028l-5.164 21.667" stroke-linecap="round" stroke-linejoin="round" stroke-width="3"/><path stroke-width="2" d="M95 37.5h48m-48 16h31m9 0h12m8 0h27m6 0h21m6 0h78m-189 14h58m11 0h44m35 0h27m78.124 55.525c-.304-8.44-.262-21.171 2.652-22.928 4.414-2.659 40.997-6.684 43-1.805 1.357 3.315-3.641 47.275-9.486 84.708m-1.29 5s-2.037 12.31-2.458 16.433c0 0 .788 10.981-.764 19.99 0 .012 0 .018-.006.03-.112.686-.243 1.36-.39 2.016-.019.054-.025.085-.025.085-1.237 5.5-3.53 9.767-7.693 9.427-3.163-.255-8.138-.364-13.664-.382v-11.504a63.679 63.679 0 0110.021-4.626l.054-.018c1.966-.698 3.429-1.942 4.513-3.503 2.227-3.193 2.849-7.709 2.89-11.515.053-4.067-.55-7.327-.55-7.327.503-.832-.172-4.165-1.665-9.106m6.212 38s3.26-11.92-6.475-10.943"/></g></svg>